<svg width="106" height="106" viewBox="0 0 106 106" fill="none" xmlns="http://www.w3.org/2000/svg">
<path d="M72.875 46.375H62.9375C62.059 46.375 61.2164 46.026 60.5952 45.4048C59.974 44.7836 59.625 43.941 59.625 43.0625C59.625 42.184 59.974 41.3414 60.5952 40.7202C61.2164 40.099 62.059 39.75 62.9375 39.75H72.875C73.7535 39.75 74.5961 40.099 75.2173 40.7202C75.8385 41.3414 76.1875 42.184 76.1875 43.0625C76.1875 43.941 75.8385 44.7836 75.2173 45.4048C74.5961 46.026 73.7535 46.375 72.875 46.375ZM43.0625 39.75H39.75V36.4375C39.75 35.559 39.401 34.7164 38.7798 34.0952C38.1586 33.474 37.316 33.125 36.4375 33.125C35.559 33.125 34.7164 33.474 34.0952 34.0952C33.474 34.7164 33.125 35.559 33.125 36.4375V39.75H29.8125C28.934 39.75 28.0914 40.099 27.4702 40.7202C26.849 41.3414 26.5 42.184 26.5 43.0625C26.5 43.941 26.849 44.7836 27.4702 45.4048C28.0914 46.026 28.934 46.375 29.8125 46.375H33.125V49.6875C33.125 50.566 33.474 51.4086 34.0952 52.0298C34.7164 52.651 35.559 53 36.4375 53C37.316 53 38.1586 52.651 38.7798 52.0298C39.401 51.4086 39.75 50.566 39.75 49.6875V46.375H43.0625C43.941 46.375 44.7836 46.026 45.4048 45.4048C46.026 44.7836 46.375 43.941 46.375 43.0625C46.375 42.184 46.026 41.3414 45.4048 40.7202C44.7836 40.099 43.941 39.75 43.0625 39.75ZM99.9878 83.0816C98.7394 84.8644 97.1158 86.3521 95.2309 87.4403C93.3461 88.5285 91.2459 89.1908 89.0778 89.3806C86.9097 89.5704 84.7263 89.2832 82.6811 88.5391C80.6359 87.7949 78.7784 86.612 77.2392 85.0733C77.1895 85.0236 77.1398 84.9739 77.0943 84.9201L60.6519 66.25H45.3316L28.9057 84.9201L28.7608 85.0733C25.9626 87.8655 22.1718 89.4348 18.2187 89.4375C16.0426 89.4367 13.893 88.9594 11.921 88.0392C9.94897 87.119 8.20235 85.7782 6.80382 84.1109C5.40529 82.4436 4.38878 80.4904 3.82568 78.3883C3.26259 76.2863 3.16657 74.0865 3.54437 71.9434C3.54238 71.9241 3.54238 71.9047 3.54437 71.8854L10.3226 37.0669C11.3314 31.3241 14.3318 26.1206 18.7966 22.3706C23.2614 18.6206 28.905 16.5642 34.7357 16.5625H71.2188C77.0318 16.5718 82.6581 18.6165 87.1208 22.3417C91.5834 26.0668 94.6006 31.2372 95.6484 36.9551C95.6484 36.9799 95.6484 37.0048 95.6484 37.0296L102.427 71.8813C102.429 71.9005 102.429 71.9199 102.427 71.9392C102.777 73.8655 102.743 75.8422 102.324 77.7548C101.905 79.6675 101.111 81.4781 99.9878 83.0816ZM71.2188 59.625C76.0507 59.625 80.6847 57.7055 84.1014 54.2889C87.518 50.8722 89.4375 46.2382 89.4375 41.4062C89.4375 36.5743 87.518 31.9403 84.1014 28.5236C80.6847 25.107 76.0507 23.1875 71.2188 23.1875H34.7357C30.4582 23.1913 26.3191 24.7035 23.0466 27.458C19.7741 30.2125 17.5778 34.0329 16.8441 38.247V38.3008L10.0617 73.1193C9.76193 74.8455 10.0173 76.6223 10.7912 78.1941C11.5651 79.766 12.8175 81.0519 14.3684 81.8669C15.9194 82.682 17.6888 82.9841 19.4223 82.7299C21.1558 82.4757 22.764 81.6783 24.0156 80.4523L41.3731 60.7471C41.6839 60.3945 42.0662 60.1121 42.4945 59.9186C42.9229 59.7252 43.3875 59.6251 43.8575 59.625H71.2188ZM95.9383 73.1193L92.3194 54.4865C90.0936 58.0805 86.9876 61.0472 83.2952 63.1057C79.6028 65.1642 75.4462 66.2464 71.2188 66.25H69.4797L81.9844 80.4565C82.9272 81.3735 84.074 82.0539 85.3307 82.4419C86.5874 82.8299 87.9182 82.9143 89.2139 82.6883C91.3724 82.3073 93.2917 81.0862 94.5514 79.2925C95.8111 77.4988 96.3083 75.2789 95.9341 73.1193H95.9383Z" fill="#DDDDDD"/>
</svg>
