<svg width="128" height="95" viewBox="0 0 128 95" fill="none" xmlns="http://www.w3.org/2000/svg">
<path fill-rule="evenodd" clip-rule="evenodd" d="M12.4206 54.2299C12.896 53.2836 13.7271 52.5644 14.7319 52.2299C15.7367 51.8955 16.833 51.9732 17.7806 52.4459L63.9966 75.5419L110.205 52.4379C110.675 52.1977 111.188 52.053 111.714 52.0121C112.24 51.9711 112.77 52.0347 113.271 52.1993C113.773 52.3638 114.237 52.626 114.637 52.9708C115.036 53.3155 115.364 53.736 115.6 54.2079C115.837 54.6799 115.978 55.194 116.015 55.7206C116.051 56.2472 115.984 56.7759 115.815 57.2762C115.647 57.7765 115.381 58.2385 115.033 58.6356C114.685 59.0327 114.262 59.357 113.789 59.5899L65.7886 83.5899C65.2324 83.8686 64.6188 84.0137 63.9966 84.0137C63.3745 84.0137 62.7609 83.8686 62.2046 83.5899L14.2046 59.5899C13.2583 59.1146 12.5391 58.2834 12.2047 57.2786C11.8703 56.2739 11.9479 55.1775 12.4206 54.2299Z" fill="#DDDDDD"/>
<path fill-rule="evenodd" clip-rule="evenodd" d="M12.424 39.208C12.8993 38.2617 13.7305 37.5425 14.7352 37.2081C15.74 36.8736 16.8364 36.9513 17.784 37.424L64 60.52L110.208 37.416C110.678 37.1758 111.191 37.0311 111.717 36.9902C112.244 36.9492 112.773 37.0129 113.275 37.1774C113.776 37.3419 114.24 37.6041 114.64 37.9489C115.04 38.2936 115.367 38.7141 115.604 39.1861C115.84 39.658 115.981 40.1721 116.018 40.6987C116.055 41.2253 115.987 41.754 115.819 42.2543C115.65 42.7546 115.384 43.2167 115.037 43.6137C114.689 44.0108 114.266 44.3352 113.792 44.568L65.792 68.568C65.2358 68.8467 64.6222 68.9919 64 68.9919C63.3778 68.9919 62.7642 68.8467 62.208 68.568L14.208 44.568C13.2617 44.0927 12.5425 43.2615 12.2081 42.2568C11.8736 41.252 11.9513 40.1556 12.424 39.208Z" fill="#DDDDDD"/>
<path fill-rule="evenodd" clip-rule="evenodd" d="M12.4206 23.2299C12.896 22.2836 13.7271 21.5644 14.7319 21.2299C15.7367 20.8955 16.833 20.9732 17.7806 21.4459L63.9966 44.5419L110.205 21.4379C110.675 21.1977 111.188 21.053 111.714 21.0121C112.24 20.9711 112.77 21.0347 113.271 21.1993C113.773 21.3638 114.237 21.626 114.637 21.9708C115.036 22.3155 115.364 22.736 115.6 23.2079C115.837 23.6799 115.978 24.194 116.015 24.7206C116.051 25.2472 115.984 25.7759 115.815 26.2762C115.647 26.7765 115.381 27.2385 115.033 27.6356C114.685 28.0327 114.262 28.357 113.789 28.5899L65.7886 52.5899C65.2324 52.8686 64.6188 53.0137 63.9966 53.0137C63.3745 53.0137 62.7609 52.8686 62.2046 52.5899L14.2046 28.5899C13.2583 28.1146 12.5391 27.2834 12.2047 26.2786C11.8703 25.2739 11.9479 24.1775 12.4206 23.2299Z" fill="#DDDDDD"/>
</svg>
